HIERARCHY
ROOT Hips
{
	OFFSET -0.001795 -0.223333 0.028219
	CHANNELS 6 Xposition Yposition Zposition Zrotation Yrotation Xrotation 
	JOINT LeftUpLeg
	{
		OFFSET 0.069520 -0.091406 -0.006815
		CHANNELS 3 Zrotation Yrotation Xrotation
		JOINT LeftLeg
		{
			OFFSET 0.034277 -0.375199 -0.004496
			CHANNELS 3 Zrotation Yrotation Xrotation
			JOINT LeftFoot
			{
				OFFSET -0.013596 -0.397961 -0.043693
				CHANNELS 3 Zrotation Yrotation Xrotation
				JOINT LeftToe
				{
					OFFSET 0.026358 -0.055791 0.119288
					CHANNELS 3 Zrotation Yrotation Xrotation
					End Site
					{
						OFFSET 0.000000 0.000000 0.000000
					}
				}
			}
		}
	}
	JOINT RightUpLeg
	{
		OFFSET -0.067670 -0.090522 -0.004320
		CHANNELS 3 Zrotation Yrotation Xrotation
		JOINT RightLeg
		{
			OFFSET -0.038290 -0.382569 -0.008850
			CHANNELS 3 Zrotation Yrotation Xrotation
			JOINT RightFoot
			{
				OFFSET 0.015774 -0.398415 -0.042312
				CHANNELS 3 Zrotation Yrotation Xrotation
				JOINT RightToe
				{
					OFFSET -0.025372 -0.048144 0.123348
					CHANNELS 3 Zrotation Yrotation Xrotation
					End Site
					{
						OFFSET 0.000000 0.000000 0.000000
					}
				}
			}
		}
	}
	JOINT Spine
	{
		OFFSET -0.002533 0.108963 -0.026696
		CHANNELS 3 Zrotation Yrotation Xrotation
		JOINT Spine1
		{
			OFFSET 0.005487 0.135180 0.001092
			CHANNELS 3 Zrotation Yrotation Xrotation
			JOINT Spine2
			{
				OFFSET 0.001457 0.052922 0.025425
				CHANNELS 3 Zrotation Yrotation Xrotation
				JOINT Neck
				{
					OFFSET -0.002778 0.213870 -0.042857
					CHANNELS 3 Zrotation Yrotation Xrotation
					JOINT Head
					{
						OFFSET 0.005152 0.064970 0.051349
						CHANNELS 3 Zrotation Yrotation Xrotation
						End Site
						{
							OFFSET 0.000000 0.000000 0.000000
						}
					}
				}
				JOINT LeftShoulder
				{
					OFFSET 0.078845 0.121749 -0.034090
					CHANNELS 3 Zrotation Yrotation Xrotation
					JOINT LeftArm
					{
						OFFSET 0.090977 0.030469 -0.008868
						CHANNELS 3 Zrotation Yrotation Xrotation
						JOINT LeftForeArm
						{
							OFFSET 0.259612 -0.012772 -0.027456
							CHANNELS 3 Zrotation Yrotation Xrotation
							JOINT LeftHand
							{
								OFFSET 0.249234 0.008986 -0.001171
								CHANNELS 3 Zrotation Yrotation Xrotation
								End Site
								{
									OFFSET 0.000000 0.000000 0.000000
								}
							}
						}
					}
				}
				JOINT RightShoulder
				{
					OFFSET -0.081759 0.118833 -0.038615
					CHANNELS 3 Zrotation Yrotation Xrotation
					JOINT RightArm
					{
						OFFSET -0.096012 0.032551 -0.009143
						CHANNELS 3 Zrotation Yrotation Xrotation
						JOINT RightForeArm
						{
							OFFSET -0.253742 -0.013329 -0.021401
							CHANNELS 3 Zrotation Yrotation Xrotation
							JOINT RightHand
							{
								OFFSET -0.255298 0.007772 -0.005559
								CHANNELS 3 Zrotation Yrotation Xrotation
								End Site
								{
									OFFSET 0.000000 0.000000 0.000000
								}
							}
						}
					}
				}
			}
		}
	}
}
MOTION
Frames: 5
Frame Time: 0.050000
0.000000 0.884947 0.000000 -6.926918 -13.420254 45.504603 17.875509 10.718188 -63.173274 -8.544126 1.963640 13.627067 7.145940 15.190884 19.183534 0.000000 0.000000 0.000000 -19.848186 2.406352 -58.427148 16.074521 -1.907904 8.524644 -11.073596 -30.944325 11.863967 0.000000 0.000000 0.000000 -0.662913 2.869529 57.895405 -4.151357 1.234254 -25.857068 -8.488677 1.174283 26.412527 13.471474 -4.443145 -30.166428 0.000000 0.000000 0.000000 3.927332 -36.421600 14.384993 -9.853678 -33.098357 -1.369792 16.944652 -13.906784 -1.519549 0.000000 0.000000 0.000000 9.337235 31.003526 15.380367 1.888770 43.063072 -5.249466 -24.316175 21.273736 -3.072086 0.000000 0.000000 0.000000 
-0.001062 0.885006 -0.005863 -6.599185 -13.858439 45.592520 17.869565 11.018584 -63.710113 -7.708357 1.581384 11.298046 4.642942 11.597625 20.093342 0.000000 0.000000 0.000000 -19.749342 2.555361 -59.192943 15.459312 -1.868359 9.078591 -10.754053 -30.221004 13.671570 0.000000 0.000000 0.000000 -0.446675 2.685405 56.837579 -4.370883 1.209912 -28.599584 -8.870671 3.177553 28.058402 18.840256 -5.616525 -34.590807 0.000000 0.000000 0.000000 -3.848704 -38.266129 17.619673 -5.737093 -26.576442 -2.194326 17.414896 -12.559251 -1.441303 0.000000 0.000000 0.000000 16.150387 27.252483 15.232074 0.353291 37.837651 -5.169903 -23.399811 26.601733 -3.853106 0.000000 0.000000 0.000000 
-0.002711 0.884722 -0.011902 -4.683118 -13.273998 41.570276 17.230894 9.642744 -62.587996 -9.596580 2.288568 14.379591 5.649091 12.940755 16.565023 0.000000 0.000000 0.000000 -21.257008 1.387333 -57.175697 16.730246 -2.350106 11.678148 -10.468715 -29.368066 12.844337 0.000000 0.000000 0.000000 0.475741 1.795928 57.886810 -7.054150 1.536321 -31.815496 -7.232367 1.753809 28.460778 15.614821 -5.120879 -32.096870 0.000000 0.000000 0.000000 -10.781681 -35.753892 18.927123 -5.559133 -22.093768 -2.086908 18.957353 -12.226632 -1.521896 0.000000 0.000000 0.000000 17.389797 23.139111 12.491850 6.359937 32.602019 -3.232415 -20.866390 26.764553 -3.430382 0.000000 0.000000 0.000000 
-0.004111 0.884938 -0.017924 -3.988512 -13.413483 39.786648 17.846213 9.981577 -62.870236 -10.535597 2.566031 14.659654 5.099782 12.359810 19.081902 0.000000 0.000000 0.000000 -22.547192 0.790180 -56.283095 18.127886 -2.703727 12.565905 -10.706283 -29.622637 12.526260 0.000000 0.000000 0.000000 0.257564 1.620384 55.169287 -6.975102 1.518056 -31.224293 -7.913461 3.303882 26.459164 18.011643 -5.971860 -31.810019 0.000000 0.000000 0.000000 -13.541828 -30.687114 16.565448 -5.665385 -14.255207 -1.691278 19.097426 -10.582282 -1.326789 0.000000 0.000000 0.000000 22.130272 18.014424 10.259561 7.642638 23.236325 -2.316165 -19.557384 27.610048 -3.415843 0.000000 0.000000 0.000000 
-0.005555 0.883569 -0.023794 -3.045173 -12.661501 35.501316 17.373156 8.613571 -60.286005 -10.843740 2.911050 17.249957 5.058187 12.187173 16.902740 0.000000 0.000000 0.000000 -21.899115 0.615786 -53.641447 17.990474 -2.999104 15.412151 -10.410634 -28.444275 11.833639 0.000000 0.000000 0.000000 -0.302249 1.481495 53.343237 -6.268052 1.442166 -31.644146 -7.673450 5.239118 27.342344 18.697173 -7.202109 -28.689982 0.000000 0.000000 0.000000 -13.461680 -24.812045 12.581026 -4.973454 -6.111043 -1.157854 22.350630 -9.142605 -1.489497 0.000000 0.000000 0.000000 24.384088 11.926840 7.035051 7.125360 14.184251 -1.800595 -15.727118 28.241042 -2.833897 0.000000 0.000000 0.000000 
